#!OML:ASF X:\2005_08_12_Meinard\c3d\meinard.ASF
:FULLY-SPECIFIED
:DEGREES
547
root -1.01612 17.1436 -4.60949 -10.1027 -73.4941 1.55441
lowerback 35.5776 -4.10852 -3.60653
upperback 6.10992 -7.4809 -2.4031
thorax -10.8616 -3.59659 2.34229
lowerneck -5.98118 -9.3568 0.472331
upperneck -8.17389 -12.4661 8.93873
head -1.00012 -6.50189 2.57821
rclavicle 3.73715e-014 -6.36111e-015
rhumerus 36.2463 27.4901 39.894
rradius 31.6249
rwrist -80.8645
rhand -51.4141 -12.5244
rfingers 7.12502
rthumb -23.9457 -41.0512
lclavicle 3.73715e-014 -6.36111e-015
lhumerus 14.9533 -41.8067 76.2597
lradius 104.896
lwrist 10.8304
lhand -18.2248 -20.0151
lfingers 7.12502
lthumb 8.05341 9.81141
rfemur -6.86693 -14.9236 20.1609
rtibia 35.6281
rfoot -15.8154 4.51411
rtoes -6.06057
lfemur 15.4617 -7.07331 -8.7172
ltibia 21.693
lfoot -9.54516 24.7071
ltoes -32.3362
548
root -1.0338 17.1485 -4.6329 -10.2426 -73.4644 1.77493
lowerback 35.6719 -4.10458 -3.5764
upperback 6.08845 -7.4731 -2.4292
thorax -10.9289 -3.58981 2.30391
lowerneck -6.36853 -9.42592 0.657247
upperneck -8.35278 -12.5818 9.02459
head -0.994333 -6.57111 2.55803
rclavicle -6.16232e-014 -1.59028e-015
rhumerus 35.7728 27.4263 39.4568
rradius 31.8925
rwrist -82.1459
rhand -50.1637 -11.9776
rfingers 7.12502
rthumb -22.7462 -40.6568
lclavicle -6.16232e-014 -1.59028e-015
lhumerus 12.7555 -41.4363 77.822
lradius 103.597
lwrist 10.5086
lhand -18.1891 -19.8776
lfingers 7.12502
lthumb 8.08786 9.94764
rfemur -6.8819 -15.1071 20.2028
rtibia 35.5823
rfoot -15.8271 4.50505
rtoes -6.05365
lfemur 15.3628 -7.15259 -8.74502
ltibia 21.7586
lfoot -9.48862 24.98
ltoes -32.1637
549
root -1.05116 17.1527 -4.656 -10.3494 -73.4271 1.93342
lowerback 35.8081 -4.10368 -3.53976
upperback 6.05372 -7.46695 -2.44117
thorax -11.0254 -3.58214 2.28126
lowerneck -6.71384 -9.50223 0.791126
upperneck -8.54594 -12.7025 9.13986
head -0.994891 -6.64321 2.55816
rclavicle 8.98507e-014 0
rhumerus 35.3153 27.4594 39.0748
rradius 32.202
rwrist -82.9991
rhand -49.4501 -11.5549
rfingers 7.12502
rthumb -22.0612 -40.3165
lclavicle 8.98507e-014 0
lhumerus 10.3564 -40.8789 79.5186
lradius 102.25
lwrist 10.1638
lhand -18.0489 -19.8974
lfingers 7.12502
lthumb 8.22315 9.92259
rfemur -6.87553 -15.3074 20.2507
rtibia 35.5612
rfoot -15.8398 4.51338
rtoes -5.97492
lfemur 15.2942 -7.16721 -8.72052
ltibia 21.8064
lfoot -9.42109 25.1612
ltoes -32.0377
550
root -1.06811 17.1566 -4.67858 -10.4846 -73.3875 2.13657
lowerback 35.9293 -4.1044 -3.50554
upperback 6.01496 -7.46452 -2.46664
thorax -11.1223 -3.57593 2.24629
lowerneck -7.08076 -9.57826 0.897382
upperneck -8.70389 -12.8234 9.30674
head -0.97538 -6.71377 2.5759
rclavicle 2.5842e-014 7.95139e-015
rhumerus 35.0024 27.7278 38.9099
rradius 32.4474
rwrist -83.4723
rhand -49.3321 -10.9917
rfingers 7.12502
rthumb -21.948 -39.7666
lclavicle 2.5842e-014 7.95139e-015
lhumerus 7.80642 -40.1206 81.3136
lradius 100.812
lwrist 9.84872
lhand -17.8203 -20.0672
lfingers 7.12502
lthumb 8.44373 9.74405
rfemur -6.90421 -15.4943 20.2846
rtibia 35.5615
rfoot -15.8507 4.49528
rtoes -5.77588
lfemur 15.2147 -7.21882 -8.72602
ltibia 21.8392
lfoot -9.37743 25.4077
ltoes -31.8362
551
root -1.08382 17.1589 -4.70113 -10.643 -73.3432 2.33189
lowerback 36.0847 -4.10047 -3.48602
upperback 5.98755 -7.4636 -2.48829
thorax -11.2167 -3.57073 2.22484
lowerneck -7.48747 -9.6526 1.05876
upperneck -8.84422 -12.9511 9.40887
head -0.951771 -6.78711 2.56101
rclavicle 5.1684e-014 1.59028e-015
rhumerus 34.7754 28.1319 38.8575
rradius 32.6118
rwrist -83.3211
rhand -49.783 -10.5205
rfingers 7.12502
rthumb -22.3808 -39.2441
lclavicle 5.1684e-014 1.59028e-015
lhumerus 5.45978 -39.2558 82.9399
lradius 99.3049
lwrist 9.57617
lhand -17.6338 -20.0484
lfingers 7.12502
lthumb 8.62374 9.75544
rfemur -6.91444 -15.7003 20.3129
rtibia 35.5857
rfoot -15.8595 4.46427
rtoes -5.55399
lfemur 15.18 -7.29044 -8.73578
ltibia 21.8334
lfoot -9.31425 25.6304
ltoes -31.6905
552
root -1.10026 17.1614 -4.72323 -10.7425 -73.3076 2.48263
lowerback 36.2073 -4.0911 -3.43442
upperback 5.94854 -7.44147 -2.51054
thorax -11.3166 -3.55603 2.17657
lowerneck -7.79862 -9.74429 1.11606
upperneck -9.02938 -13.0869 9.61799
head -0.943527 -6.86645 2.60357
rclavicle 4.77083e-014 -4.77083e-014
rhumerus 34.7336 28.8216 39.1147
rradius 32.6102
rwrist -82.7971
rhand -50.739 -9.9668
rfingers 7.12502
rthumb -23.2983 -38.5771
lclavicle 4.77083e-014 -4.77083e-014
lhumerus 3.31568 -38.3944 84.4131
lradius 97.6802
lwrist 9.39795
lhand -17.5681 -19.7421
lfingers 7.12502
lthumb 8.68714 10.0591
rfemur -6.94984 -15.9164 20.3564
rtibia 35.6326
rfoot -15.8965 4.43705
rtoes -5.23632
lfemur 15.1413 -7.31662 -8.70653
ltibia 21.8021
lfoot -9.22385 25.8212
ltoes -31.4953
